<svg width="64" height="64" viewBox="0 0 64 64" fill="none" xmlns="http://www.w3.org/2000/svg">
<rect x="0.5" y="7.08136" width="63" height="48.192" stroke="#C5D36A"/>
<path d="M40.9004 41.6475C40.9004 40.7393 40.7591 39.932 40.4766 39.2256C40.2142 38.5192 39.7399 37.8734 39.0537 37.2881C38.3675 36.7028 37.3988 36.1377 36.1475 35.5928C34.9163 35.0277 33.3421 34.4525 31.4248 33.8672C29.3258 33.2214 27.3883 32.5049 25.6123 31.7178C23.8564 30.9105 22.3226 29.9821 21.0107 28.9326C19.6989 27.863 18.6797 26.6419 17.9531 25.2695C17.2266 23.877 16.8633 22.2725 16.8633 20.4561C16.8633 18.6598 17.2367 17.0251 17.9834 15.5518C18.7503 14.0785 19.8301 12.807 21.2227 11.7373C22.6354 10.6475 24.3005 9.8099 26.2178 9.22461C28.1351 8.61914 30.2542 8.31641 32.5752 8.31641C35.8447 8.31641 38.6602 8.92188 41.0215 10.1328C43.403 11.3438 45.2295 12.9684 46.501 15.0068C47.7926 17.0452 48.4385 19.2956 48.4385 21.7578H40.9004C40.9004 20.3047 40.5876 19.0231 39.9619 17.9131C39.3564 16.7829 38.4281 15.8949 37.1768 15.249C35.9456 14.6032 34.3815 14.2803 32.4844 14.2803C30.6882 14.2803 29.1947 14.5527 28.0039 15.0977C26.8132 15.6426 25.9251 16.3792 25.3398 17.3076C24.7546 18.236 24.4619 19.2855 24.4619 20.4561C24.4619 21.2835 24.6536 22.0404 25.0371 22.7266C25.4206 23.3926 26.0059 24.0182 26.793 24.6035C27.5801 25.1686 28.569 25.7035 29.7598 26.208C30.9505 26.7126 32.3532 27.1969 33.9678 27.6611C36.4098 28.3877 38.5391 29.195 40.3555 30.083C42.1719 30.9508 43.6855 31.9398 44.8965 33.0498C46.1074 34.1598 47.0156 35.4212 47.6211 36.834C48.2266 38.2266 48.5293 39.8109 48.5293 41.5869C48.5293 43.4437 48.1559 45.1188 47.4092 46.6123C46.6624 48.0856 45.5928 49.347 44.2002 50.3965C42.8278 51.4258 41.1729 52.223 39.2354 52.7881C37.318 53.333 35.1787 53.6055 32.8174 53.6055C30.6982 53.6055 28.6094 53.3229 26.5508 52.7578C24.5124 52.1927 22.6556 51.335 20.9805 50.1846C19.3053 49.014 17.9733 47.5609 16.9844 45.8252C15.9954 44.0693 15.501 42.0208 15.501 39.6797H23.0996C23.0996 41.1126 23.3418 42.3337 23.8262 43.3428C24.3307 44.3519 25.027 45.1794 25.915 45.8252C26.8031 46.4508 27.8324 46.915 29.0029 47.2178C30.1937 47.5205 31.4652 47.6719 32.8174 47.6719C34.5934 47.6719 36.0768 47.4196 37.2676 46.915C38.4785 46.4105 39.3867 45.7041 39.9922 44.7959C40.5977 43.8877 40.9004 42.8382 40.9004 41.6475Z" fill="black"/>
<path d="M40.4766 39.2256L39.5391 39.5738L39.5435 39.5854L39.5481 39.597L40.4766 39.2256ZM39.0537 37.2881L38.4048 38.0489L39.0537 37.2881ZM36.1475 35.5928L35.7303 36.5016L35.7392 36.5057L35.7482 36.5096L36.1475 35.5928ZM31.4248 33.8672L31.1307 34.823L31.1328 34.8236L31.4248 33.8672ZM25.6123 31.7178L25.1945 32.6264L25.2071 32.632L25.6123 31.7178ZM21.0107 28.9326L20.3788 29.7077L20.386 29.7135L21.0107 28.9326ZM17.9531 25.2695L17.0665 25.7321L17.0693 25.7374L17.9531 25.2695ZM17.9834 15.5518L17.0963 15.09L17.0914 15.0997L17.9834 15.5518ZM21.2227 11.7373L21.8318 12.5304L21.8335 12.5291L21.2227 11.7373ZM26.2178 9.22461L26.5097 10.1811L26.5189 10.1782L26.2178 9.22461ZM41.0215 10.1328L40.5652 11.0226L40.5682 11.0242L41.0215 10.1328ZM46.501 15.0068L45.6525 15.5361L45.6563 15.5421L46.501 15.0068ZM48.4385 21.7578V22.7578H49.4385V21.7578H48.4385ZM40.9004 21.7578H39.9004V22.7578H40.9004V21.7578ZM39.9619 17.9131L39.0804 18.3853L39.0855 18.3948L39.0908 18.4041L39.9619 17.9131ZM37.1768 15.249L36.7122 16.1346L36.7181 16.1376L37.1768 15.249ZM28.0039 15.0977L27.5878 14.1883L28.0039 15.0977ZM25.0371 22.7266L24.1641 23.2144L24.1705 23.2255L25.0371 22.7266ZM26.793 24.6035L26.1963 25.406L26.203 25.411L26.2098 25.4158L26.793 24.6035ZM29.7598 26.208L29.3696 27.1288L29.7598 26.208ZM33.9678 27.6611L34.253 26.7026L34.2441 26.7001L33.9678 27.6611ZM40.3555 30.083L39.9162 30.9814L39.9244 30.9853L40.3555 30.083ZM47.6211 36.834L46.7019 37.2279L46.704 37.2327L47.6211 36.834ZM47.4092 46.6123L48.3012 47.0644L48.3036 47.0595L47.4092 46.6123ZM44.2002 50.3965L44.8002 51.1965L44.802 51.1951L44.2002 50.3965ZM39.2354 52.7881L39.5087 53.75L39.5154 53.7481L39.2354 52.7881ZM26.5508 52.7578L26.2836 53.7215L26.2861 53.7221L26.5508 52.7578ZM20.9805 50.1846L20.4077 51.0043L20.4144 51.0089L20.9805 50.1846ZM16.9844 45.8252L16.1131 46.3159L16.1155 46.3202L16.9844 45.8252ZM15.501 39.6797V38.6797H14.501V39.6797H15.501ZM23.0996 39.6797H24.0996V38.6797H23.0996V39.6797ZM23.8262 43.3428L22.9246 43.7755L22.9281 43.7828L22.9317 43.79L23.8262 43.3428ZM25.915 45.8252L25.3269 46.6339L25.3329 46.6384L25.3391 46.6427L25.915 45.8252ZM29.0029 47.2178L28.7525 48.1859L28.7565 48.1869L29.0029 47.2178ZM37.2676 46.915L36.883 45.9919L36.8774 45.9943L37.2676 46.915ZM41.9004 41.6475C41.9004 40.6362 41.743 39.6992 41.405 38.8542L39.5481 39.597C39.7752 40.1647 39.9004 40.8424 39.9004 41.6475H41.9004ZM41.414 38.8774C41.0815 37.9824 40.4931 37.2015 39.7027 36.5273L38.4048 38.0489C38.9867 38.5453 39.3468 39.056 39.5391 39.5738L41.414 38.8774ZM39.7027 36.5273C38.9134 35.8541 37.8471 35.2422 36.5467 34.6759L35.7482 36.5096C36.9504 37.0332 37.8216 37.5515 38.4048 38.0489L39.7027 36.5273ZM36.5646 34.6839C35.2786 34.0937 33.6586 33.5035 31.7168 32.9108L31.1328 34.8236C33.0256 35.4014 34.554 35.9617 35.7303 36.5016L36.5646 34.6839ZM31.7189 32.9114C29.653 32.2757 27.753 31.5727 26.0175 30.8035L25.2071 32.632C27.0237 33.4371 28.9987 34.167 31.1307 34.823L31.7189 32.9114ZM26.03 30.8092C24.3373 30.0309 22.8751 29.1435 21.6354 28.1517L20.386 29.7135C21.7701 30.8207 23.3756 31.79 25.1946 32.6263L26.03 30.8092ZM21.6427 28.1576C20.4251 27.1648 19.4955 26.0456 18.8369 24.8016L17.0693 25.7374C17.8639 27.2383 18.9727 28.5611 20.3788 29.7076L21.6427 28.1576ZM18.8397 24.807C18.1985 23.578 17.8633 22.1367 17.8633 20.4561H15.8633C15.8633 22.4082 16.2546 24.1759 17.0665 25.7321L18.8397 24.807ZM17.8633 20.4561C17.8633 18.8029 18.2057 17.3251 18.8754 16.0039L17.0914 15.0997C16.2676 16.7251 15.8633 18.5168 15.8633 20.4561H17.8633ZM18.8704 16.0135C19.5662 14.6769 20.5481 13.5164 21.8318 12.5304L20.6135 10.9443C19.112 12.0976 17.9345 13.48 17.0964 15.09L18.8704 16.0135ZM21.8335 12.5291C23.1397 11.5214 24.6936 10.7354 26.5097 10.181L25.9258 8.26818C23.9073 8.88436 22.1311 9.77349 20.6119 10.9455L21.8335 12.5291ZM26.5189 10.1782C28.3251 9.60781 30.341 9.31641 32.5752 9.31641V7.31641C30.1675 7.31641 27.9451 7.63047 25.9166 8.27103L26.5189 10.1782ZM32.5752 9.31641C35.7222 9.31641 38.3741 9.899 40.5652 11.0226L41.4778 9.243C38.9462 7.94475 35.9672 7.31641 32.5752 7.31641V9.31641ZM40.5682 11.0242C42.8062 12.1621 44.4879 13.669 45.6525 15.5361L47.3494 14.4776C45.9711 12.2679 43.9998 10.5254 41.4747 9.24143L40.5682 11.0242ZM45.6563 15.5421C46.8443 17.417 47.4385 19.481 47.4385 21.7578H49.4385C49.4385 19.1101 48.7409 16.6735 47.3457 14.4716L45.6563 15.5421ZM48.4385 20.7578H40.9004V22.7578H48.4385V20.7578ZM41.9004 21.7578C41.9004 20.1572 41.5545 18.702 40.8331 17.4221L39.0908 18.4041C39.6207 19.3443 39.9004 20.4522 39.9004 21.7578H41.9004ZM40.8434 17.4409C40.133 16.1148 39.0481 15.0895 37.6354 14.3604L36.7181 16.1376C37.8081 16.7002 38.5799 17.451 39.0804 18.3853L40.8434 17.4409ZM37.6413 14.3635C36.2243 13.6201 34.4872 13.2803 32.4844 13.2803V15.2803C34.2758 15.2803 35.667 15.5863 36.7122 16.1346L37.6413 14.3635ZM32.4844 13.2803C30.5948 13.2803 28.9482 13.5658 27.5878 14.1883L28.42 16.007C29.4412 15.5397 30.7815 15.2803 32.4844 15.2803V13.2803ZM27.5878 14.1883C26.2549 14.7983 25.2015 15.652 24.4939 16.7743L26.1858 17.8409C26.6488 17.1065 27.3714 16.4868 28.42 16.007L27.5878 14.1883ZM24.4939 16.7743C23.8012 17.8731 23.4619 19.1099 23.4619 20.4561H25.4619C25.4619 19.4611 25.7079 18.5989 26.1858 17.8409L24.4939 16.7743ZM23.4619 20.4561C23.4619 21.445 23.693 22.3712 24.1642 23.2144L25.9101 22.2387C25.6143 21.7096 25.4619 21.1221 25.4619 20.4561H23.4619ZM24.1705 23.2255C24.6383 24.038 25.3285 24.7607 26.1963 25.406L27.3897 23.8011C26.6832 23.2757 26.2029 22.7472 25.9037 22.2276L24.1705 23.2255ZM26.2098 25.4158C27.0732 26.0357 28.1318 26.6043 29.3696 27.1288L30.1499 25.2873C29.0062 24.8026 28.087 24.3015 27.3762 23.7912L26.2098 25.4158ZM29.3696 27.1288C30.6065 27.6529 32.0489 28.15 33.6915 28.6222L34.2441 26.7001C32.6575 26.2439 31.2945 25.7723 30.1499 25.2873L29.3696 27.1288ZM33.6826 28.6196C36.0847 29.3343 38.1603 30.1229 39.9163 30.9814L40.7947 29.1846C38.9179 28.2671 36.735 27.4411 34.2529 26.7027L33.6826 28.6196ZM39.9244 30.9853C41.6708 31.8197 43.097 32.7569 44.2208 33.787L45.5722 32.3127C44.2741 31.1227 42.6729 30.082 40.7866 29.1807L39.9244 30.9853ZM44.2208 33.787C45.3344 34.8078 46.1561 35.9543 46.7019 37.2279L48.5402 36.4401C47.8751 34.8881 46.8804 33.5118 45.5722 32.3127L44.2208 33.787ZM46.704 37.2327C47.2463 38.48 47.5293 39.9251 47.5293 41.5869H49.5293C49.5293 39.6967 49.2068 37.9732 48.5382 36.4353L46.704 37.2327ZM47.5293 41.5869C47.5293 43.306 47.1846 44.8254 46.5148 46.1651L48.3036 47.0595C49.1272 45.4122 49.5293 43.5813 49.5293 41.5869H47.5293ZM46.5172 46.1602C45.8433 47.4898 44.876 48.635 43.5983 49.5979L44.802 51.1951C46.3095 50.059 47.4816 48.6814 48.3011 47.0644L46.5172 46.1602ZM43.6002 49.5965C42.3393 50.5421 40.7974 51.2908 38.9554 51.8281L39.5154 53.7481C41.5483 53.1551 43.3163 52.3094 44.8002 51.1965L43.6002 49.5965ZM38.962 51.8262C37.1482 52.3417 35.1028 52.6055 32.8174 52.6055V54.6055C35.2546 54.6055 37.4879 54.3243 39.5087 53.75L38.962 51.8262ZM32.8174 52.6055C30.7883 52.6055 28.7885 52.3351 26.8155 51.7935L26.2861 53.7221C28.4303 54.3107 30.6081 54.6055 32.8174 54.6055V52.6055ZM26.8179 51.7942C24.8818 51.2574 23.1268 50.4454 21.5466 49.3602L20.4144 51.0089C22.1844 52.2245 24.143 53.128 26.2836 53.7215L26.8179 51.7942ZM21.5533 49.3649C19.9968 48.2772 18.767 46.934 17.8532 45.3301L16.1155 46.3202C17.1796 48.1878 18.6139 49.7508 20.4077 51.0043L21.5533 49.3649ZM17.8557 45.3345C16.9639 43.7511 16.501 41.877 16.501 39.6797H14.501C14.501 42.1647 15.027 44.3876 16.1131 46.3159L17.8557 45.3345ZM15.501 40.6797H23.0996V38.6797H15.501V40.6797ZM22.0996 39.6797C22.0996 41.2219 22.3599 42.599 22.9246 43.7755L24.7277 42.91C24.3237 42.0683 24.0996 41.0034 24.0996 39.6797H22.0996ZM22.9317 43.79C23.5059 44.9383 24.3056 45.8912 25.3269 46.6339L26.5032 45.0165C25.7484 44.4675 25.1555 43.7655 24.7206 42.8956L22.9317 43.79ZM25.3391 46.6427C26.3362 47.3452 27.4784 47.8564 28.7525 48.1859L29.2533 46.2496C28.1863 45.9737 27.2699 45.5565 26.491 45.0077L25.3391 46.6427ZM28.7565 48.1869C30.0354 48.5121 31.3903 48.6719 32.8174 48.6719V46.6719C31.54 46.6719 30.3519 46.5289 29.2493 46.2486L28.7565 48.1869ZM32.8174 48.6719C34.6806 48.6719 36.3067 48.4083 37.6577 47.8358L36.8774 45.9943C35.847 46.4309 34.5062 46.6719 32.8174 46.6719V48.6719ZM37.6522 47.8381C39.0081 47.2732 40.0888 46.4538 40.8242 45.3506L39.1601 44.2412C38.6846 44.9544 37.949 45.5478 36.883 45.992L37.6522 47.8381ZM40.8242 45.3506C41.5492 44.2632 41.9004 43.0169 41.9004 41.6475H39.9004C39.9004 42.6595 39.6461 43.5122 39.1601 44.2412L40.8242 45.3506Z" fill="#C5D36A"/>
</svg>
